<?xml version="1.0" encoding="UTF-8" standalone="no"?>
<!DOCTYPE svg PUBLIC "-//W3C//DTD SVG 1.1//EN" "http://www.w3.org/Graphics/SVG/1.1/DTD/svg11.dtd">
<svg version="1.1" xmlns="http://www.w3.org/2000/svg" xmlns:xlink="http://www.w3.org/1999/xlink" preserveAspectRatio="xMidYMid meet" viewBox="0 0 1500 800" width="1500" height="800"><defs><path d="M468.75 685.19L468.75 114.81L1054.69 114.81L1054.69 685.19L468.75 685.19ZM541.99 613.89L651.86 506.95L725.1 542.6L834.96 400L981.45 590.13L981.45 186.11L541.99 186.11L541.99 613.89ZM675.42 266.52L678.01 266.78L680.56 267.13L683.08 267.58L685.57 268.13L688.01 268.77L690.42 269.5L692.79 270.31L695.11 271.22L697.39 272.21L699.62 273.28L701.8 274.43L703.92 275.66L706 276.97L708.01 278.35L709.97 279.81L711.87 281.33L713.71 282.93L715.48 284.59L717.19 286.31L718.83 288.1L720.39 289.95L721.89 291.86L723.31 293.82L724.65 295.84L725.92 297.91L727.1 300.03L728.2 302.2L729.22 304.42L730.15 306.68L730.99 308.98L731.73 311.33L732.39 313.71L732.95 316.13L733.41 318.58L733.78 321.07L734.04 323.59L734.2 326.13L734.25 328.7L734.2 331.27L734.04 333.82L733.78 336.34L733.41 338.82L732.95 341.28L732.39 343.69L731.73 346.08L730.99 348.42L730.15 350.72L729.22 352.99L728.2 355.2L727.1 357.37L725.92 359.49L724.65 361.56L723.31 363.58L721.89 365.55L720.39 367.45L718.83 369.3L717.19 371.09L715.48 372.82L713.71 374.48L711.87 376.07L709.97 377.6L708.01 379.05L706 380.43L703.92 381.74L701.8 382.97L699.62 384.12L697.39 385.2L695.11 386.19L692.79 387.09L690.42 387.91L688.01 388.64L685.57 389.27L683.08 389.82L680.56 390.27L678.01 390.63L675.42 390.88L672.81 391.04L670.17 391.09L667.52 391.04L664.91 390.88L662.32 390.63L659.77 390.27L657.25 389.82L654.77 389.27L652.32 388.64L649.91 387.91L647.54 387.09L645.22 386.19L642.94 385.2L640.71 384.12L638.54 382.97L636.41 381.74L634.33 380.43L632.32 379.05L630.36 377.6L628.46 376.07L626.62 374.48L624.85 372.82L623.14 371.09L621.51 369.3L619.94 367.45L618.44 365.55L617.02 363.58L615.68 361.56L614.42 359.49L613.23 357.37L612.13 355.2L611.12 352.99L610.19 350.72L609.35 348.42L608.6 346.08L607.94 343.69L607.38 341.28L606.92 338.82L606.55 336.34L606.29 333.82L606.13 331.27L606.08 328.7L606.13 326.13L606.29 323.59L606.55 321.07L606.92 318.58L607.38 316.13L607.94 313.71L608.6 311.33L609.35 308.98L610.19 306.68L611.12 304.42L612.13 302.2L613.23 300.03L614.42 297.91L615.68 295.84L617.02 293.82L618.44 291.86L619.94 289.95L621.51 288.1L623.14 286.31L624.85 284.59L626.62 282.93L628.46 281.33L630.36 279.81L632.32 278.35L634.33 276.97L636.41 275.66L638.54 274.43L640.71 273.28L642.94 272.21L645.22 271.22L647.54 270.31L649.91 269.5L652.32 268.77L654.77 268.13L657.25 267.58L659.77 267.13L662.32 266.78L664.91 266.52L667.52 266.37L670.17 266.32L672.81 266.37L675.42 266.52Z" id="agI9Eah0a"></path><path d="M820.31 800L703.13 800L703.13 762.5L820.31 762.5L820.31 800Z" id="b92MESVpY"></path><path d="M585.94 762.5L468.75 762.5L468.75 800L585.94 800L585.94 762.5Z" id="fiV7XRgcq"></path><path d="M117.19 800L0 800L0 762.5L117.19 762.5L117.19 800Z" id="bNVPz0v3r"></path><path d="M351.56 762.5L234.38 762.5L234.38 800L351.56 800L351.56 762.5Z" id="b1CbKo8rMn"></path><path d="M0 0L41.02 0L41.02 114.29L0 114.29L0 0Z" id="ac8CGxQNH"></path><path d="M0 228.57L41.02 228.57L41.02 342.86L0 342.86L0 228.57Z" id="au5S5jvDv"></path><path d="M0 457.14L41.02 457.14L41.02 571.43L0 571.43L0 457.14Z" id="a1bCNAkJZr"></path><path d="M0 685.71L41.02 685.71L41.02 800L0 800L0 685.71Z" id="a3oca8mIoP"></path><path d="M1458.98 0L1500 0L1500 114.29L1458.98 114.29L1458.98 0Z" id="ae8VphECX"></path><path d="M1458.98 228.57L1500 228.57L1500 342.86L1458.98 342.86L1458.98 228.57Z" id="adMONPEEn"></path><path d="M1458.98 457.14L1500 457.14L1500 571.43L1458.98 571.43L1458.98 457.14Z" id="beJwurvKz"></path><path d="M1458.98 685.71L1500 685.71L1500 800L1458.98 800L1458.98 685.71Z" id="b1L1rCV5G"></path><path d="M1054.69 800L937.5 800L937.5 762.5L1054.69 762.5L1054.69 800Z" id="b2pjE6DNTP"></path><path d="M1289.06 800L1171.88 800L1171.88 762.5L1289.06 762.5L1289.06 800Z" id="bGqYRzgvm"></path><path d="M1500 800L1394.53 800L1394.53 762.5L1500 762.5L1500 800Z" id="a4VksN2Uat"></path><path d="M820.31 37.5L703.13 37.5L703.13 0L820.31 0L820.31 37.5Z" id="e3WbDm33uS"></path><path d="M585.94 0L468.75 0L468.75 37.5L585.94 37.5L585.94 0Z" id="d2wzdOSDnk"></path><path d="M117.19 37.5L0 37.5L0 0L117.19 0L117.19 37.5Z" id="aTDofcVBw"></path><path d="M351.56 0L234.38 0L234.38 37.5L351.56 37.5L351.56 0Z" id="b1sPnXqtuY"></path><path d="M1054.69 37.5L937.5 37.5L937.5 0L1054.69 0L1054.69 37.5Z" id="c2mPCOOSaw"></path><path d="M1289.06 37.5L1171.88 37.5L1171.88 0L1289.06 0L1289.06 37.5Z" id="f2SmrhyyNU"></path><path d="M1500 37.5L1394.53 37.5L1394.53 0L1500 0L1500 37.5Z" id="aP14l1Si8"></path></defs><g><g><g><g><filter id="shadow6684410" x="459.75" y="105.81" width="604.94" height="589.38" filterUnits="userSpaceOnUse" primitiveUnits="userSpaceOnUse"><feFlood></feFlood><feComposite in2="SourceAlpha" operator="in"></feComposite><feGaussianBlur stdDeviation="1"></feGaussianBlur><feOffset dx="1" dy="1" result="afterOffset"></feOffset><feFlood flood-color="#000000" flood-opacity="0.5"></feFlood><feComposite in2="afterOffset" operator="in"></feComposite><feMorphology operator="dilate" radius="1"></feMorphology><feComposite in2="SourceAlpha" operator="out"></feComposite></filter><path d="M468.75 685.19L468.75 114.81L1054.69 114.81L1054.69 685.19L468.75 685.19ZM541.99 613.89L651.86 506.95L725.1 542.6L834.96 400L981.45 590.13L981.45 186.11L541.99 186.11L541.99 613.89ZM675.42 266.52L678.01 266.78L680.56 267.13L683.08 267.58L685.57 268.13L688.01 268.77L690.42 269.5L692.79 270.31L695.11 271.22L697.39 272.21L699.62 273.28L701.8 274.43L703.92 275.66L706 276.97L708.01 278.35L709.97 279.81L711.87 281.33L713.71 282.93L715.48 284.59L717.19 286.31L718.83 288.1L720.39 289.95L721.89 291.86L723.31 293.82L724.65 295.84L725.92 297.91L727.1 300.03L728.2 302.2L729.22 304.42L730.15 306.68L730.99 308.98L731.73 311.33L732.39 313.71L732.95 316.13L733.41 318.58L733.78 321.07L734.04 323.59L734.2 326.13L734.25 328.7L734.2 331.27L734.04 333.82L733.78 336.34L733.41 338.82L732.95 341.28L732.39 343.69L731.73 346.08L730.99 348.42L730.15 350.72L729.22 352.99L728.2 355.2L727.1 357.37L725.92 359.49L724.65 361.56L723.31 363.58L721.89 365.55L720.39 367.45L718.83 369.3L717.19 371.09L715.48 372.82L713.71 374.48L711.87 376.07L709.97 377.6L708.01 379.05L706 380.43L703.92 381.74L701.8 382.97L699.62 384.12L697.39 385.2L695.11 386.19L692.79 387.09L690.42 387.91L688.01 388.64L685.57 389.27L683.08 389.82L680.56 390.27L678.01 390.63L675.42 390.88L672.81 391.04L670.17 391.09L667.52 391.04L664.91 390.88L662.32 390.63L659.77 390.27L657.25 389.82L654.77 389.27L652.32 388.64L649.91 387.91L647.54 387.09L645.22 386.19L642.94 385.2L640.71 384.12L638.54 382.97L636.41 381.74L634.33 380.43L632.32 379.05L630.36 377.6L628.46 376.07L626.62 374.48L624.85 372.82L623.14 371.09L621.51 369.3L619.94 367.45L618.44 365.55L617.02 363.58L615.68 361.56L614.42 359.49L613.23 357.37L612.13 355.2L611.12 352.99L610.19 350.72L609.35 348.42L608.6 346.08L607.94 343.69L607.38 341.28L606.92 338.82L606.55 336.34L606.29 333.82L606.13 331.27L606.08 328.7L606.13 326.13L606.29 323.59L606.55 321.07L606.92 318.58L607.38 316.13L607.94 313.71L608.6 311.33L609.35 308.98L610.19 306.68L611.12 304.42L612.13 302.2L613.23 300.03L614.42 297.91L615.68 295.84L617.02 293.82L618.44 291.86L619.94 289.95L621.51 288.1L623.14 286.31L624.85 284.59L626.62 282.93L628.46 281.33L630.36 279.81L632.32 278.35L634.33 276.97L636.41 275.66L638.54 274.43L640.71 273.28L642.94 272.21L645.22 271.22L647.54 270.31L649.91 269.5L652.32 268.77L654.77 268.13L657.25 267.58L659.77 267.13L662.32 266.78L664.91 266.52L667.52 266.37L670.17 266.32L672.81 266.37L675.42 266.52Z" id="bvE8AYbjU" fill="white" fill-opacity="1" filter="url(#shadow6684410)"></path></g><use xlink:href="#agI9Eah0a" opacity="1" fill="#e6e5e5" fill-opacity="1"></use><g><use xlink:href="#agI9Eah0a" opacity="1" fill-opacity="0" stroke="#c19d4a" stroke-width="0" stroke-opacity="1"></use></g></g><g><use xlink:href="#b92MESVpY" opacity="1" fill="#e6e5e5" fill-opacity="0.99"></use></g><g><use xlink:href="#fiV7XRgcq" opacity="1" fill="#e6e5e5" fill-opacity="0.99"></use></g><g><use xlink:href="#bNVPz0v3r" opacity="1" fill="#e6e5e5" fill-opacity="0.99"></use></g><g><use xlink:href="#b1CbKo8rMn" opacity="1" fill="#e6e5e5" fill-opacity="0.99"></use></g><g><use xlink:href="#ac8CGxQNH" opacity="1" fill="#e6e5e5" fill-opacity="0.99"></use></g><g><use xlink:href="#au5S5jvDv" opacity="1" fill="#e6e5e5" fill-opacity="0.99"></use></g><g><use xlink:href="#a1bCNAkJZr" opacity="1" fill="#e6e5e5" fill-opacity="0.99"></use></g><g><use xlink:href="#a3oca8mIoP" opacity="1" fill="#e6e5e5" fill-opacity="0.99"></use></g><g><use xlink:href="#ae8VphECX" opacity="1" fill="#e6e5e5" fill-opacity="0.99"></use></g><g><use xlink:href="#adMONPEEn" opacity="1" fill="#e6e5e5" fill-opacity="0.99"></use></g><g><use xlink:href="#beJwurvKz" opacity="1" fill="#e6e5e5" fill-opacity="0.99"></use></g><g><use xlink:href="#b1L1rCV5G" opacity="1" fill="#e6e5e5" fill-opacity="0.99"></use></g><g><use xlink:href="#b2pjE6DNTP" opacity="1" fill="#e6e5e5" fill-opacity="0.99"></use></g><g><use xlink:href="#bGqYRzgvm" opacity="1" fill="#e6e5e5" fill-opacity="0.99"></use></g><g><use xlink:href="#a4VksN2Uat" opacity="1" fill="#e6e5e5" fill-opacity="0.99"></use></g><g><use xlink:href="#e3WbDm33uS" opacity="1" fill="#e6e5e5" fill-opacity="0.99"></use></g><g><use xlink:href="#d2wzdOSDnk" opacity="1" fill="#e6e5e5" fill-opacity="0.99"></use></g><g><use xlink:href="#aTDofcVBw" opacity="1" fill="#e6e5e5" fill-opacity="0.99"></use></g><g><use xlink:href="#b1sPnXqtuY" opacity="1" fill="#e6e5e5" fill-opacity="0.99"></use></g><g><use xlink:href="#c2mPCOOSaw" opacity="1" fill="#e6e5e5" fill-opacity="0.99"></use></g><g><use xlink:href="#f2SmrhyyNU" opacity="1" fill="#e6e5e5" fill-opacity="0.99"></use></g><g><use xlink:href="#aP14l1Si8" opacity="1" fill="#e6e5e5" fill-opacity="0.99"></use></g></g></g></svg>