<?xml version="1.0" encoding="UTF-8" standalone="no"?>
<!DOCTYPE svg PUBLIC "-//W3C//DTD SVG 1.1//EN" "http://www.w3.org/Graphics/SVG/1.1/DTD/svg11.dtd">
<svg version="1.1" xmlns="http://www.w3.org/2000/svg" xmlns:xlink="http://www.w3.org/1999/xlink" preserveAspectRatio="xMidYMid meet" viewBox="0 0 800 800" width="800" height="800"><defs><path d="M162.5 650L162.5 162.5L650 162.5L650 650L162.5 650ZM223.44 589.06L314.84 497.66L375.78 528.13L467.19 406.25L589.06 568.75L589.06 223.44L223.44 223.44L223.44 589.06ZM334.45 292.17L336.6 292.39L338.73 292.69L340.82 293.08L342.89 293.54L344.93 294.09L346.93 294.71L348.9 295.41L350.83 296.18L352.73 297.03L354.58 297.94L356.4 298.93L358.16 299.98L359.89 301.1L361.57 302.28L363.2 303.52L364.78 304.83L366.31 306.19L367.78 307.61L369.2 309.08L370.56 310.61L371.87 312.19L373.11 313.82L374.29 315.5L375.41 317.23L376.46 319L377.45 320.81L378.36 322.66L379.21 324.56L379.98 326.49L380.68 328.46L381.3 330.46L381.85 332.5L382.32 334.57L382.7 336.66L383 338.79L383.22 340.94L383.35 343.11L383.4 345.31L383.35 347.51L383.22 349.69L383 351.84L382.7 353.96L382.32 356.06L381.85 358.13L381.3 360.16L380.68 362.17L379.98 364.13L379.21 366.07L378.36 367.96L377.45 369.82L376.46 371.63L375.41 373.4L374.29 375.12L373.11 376.8L371.87 378.43L370.56 380.01L369.2 381.54L367.78 383.02L366.31 384.44L364.78 385.8L363.2 387.1L361.57 388.35L359.89 389.53L358.16 390.64L356.4 391.7L354.58 392.68L352.73 393.6L350.83 394.44L348.9 395.22L346.93 395.91L344.93 396.54L342.89 397.08L340.82 397.55L338.73 397.93L336.6 398.24L334.45 398.46L332.28 398.59L330.08 398.63L327.88 398.59L325.71 398.46L323.55 398.24L321.43 397.93L319.33 397.55L317.26 397.08L315.23 396.54L313.22 395.91L311.26 395.22L309.32 394.44L307.43 393.6L305.57 392.68L303.76 391.7L301.99 390.64L300.27 389.53L298.59 388.35L296.96 387.1L295.38 385.8L293.85 384.44L292.37 383.02L290.96 381.54L289.59 380.01L288.29 378.43L287.05 376.8L285.86 375.12L284.75 373.4L283.69 371.63L282.71 369.82L281.79 367.96L280.95 366.07L280.18 364.13L279.48 362.17L278.85 360.16L278.31 358.13L277.84 356.06L277.46 353.96L277.15 351.84L276.93 349.69L276.8 347.51L276.76 345.31L276.8 343.11L276.93 340.94L277.15 338.79L277.46 336.66L277.84 334.57L278.31 332.5L278.85 330.46L279.48 328.46L280.18 326.49L280.95 324.56L281.79 322.66L282.71 320.81L283.69 319L284.75 317.23L285.86 315.5L287.05 313.82L288.29 312.19L289.59 310.61L290.96 309.08L292.37 307.61L293.85 306.19L295.38 304.83L296.96 303.52L298.59 302.28L300.27 301.1L301.99 299.98L303.76 298.93L305.57 297.94L307.43 297.03L309.32 296.18L311.26 295.41L313.22 294.71L315.23 294.09L317.26 293.54L319.33 293.08L321.43 292.69L323.55 292.39L325.71 292.17L327.88 292.04L330.08 291.99L332.28 292.04L334.45 292.17Z" id="b18Rv5M10w"></path><path d="M0 0L114.29 0L114.29 37.5L0 37.5L0 0Z" id="altgQOF6j"></path><path d="M228.57 37.5L342.86 37.5L342.86 0L228.57 0L228.57 37.5Z" id="c5WiqStjlb"></path><path d="M685.71 0L800 0L800 37.5L685.71 37.5L685.71 0Z" id="brs8zOMdg"></path><path d="M457.14 37.5L571.43 37.5L571.43 0L457.14 0L457.14 37.5Z" id="bXCViWGGz"></path><path d="M800 800L685.71 800L685.71 762.5L800 762.5L800 800Z" id="avIIoFfUJ"></path><path d="M571.43 762.5L457.14 762.5L457.14 800L571.43 800L571.43 762.5Z" id="c3wxJHzje"></path><path d="M114.29 800L0 800L0 762.5L114.29 762.5L114.29 800Z" id="g1HF5UEmHW"></path><path d="M342.86 762.5L228.57 762.5L228.57 800L342.86 800L342.86 762.5Z" id="a3N4GwxwlD"></path><path d="M0 0L37.5 0L37.5 114.29L0 114.29L0 0Z" id="c15KMAhW3w"></path><path d="M0 228.57L37.5 228.57L37.5 342.86L0 342.86L0 228.57Z" id="c8wqBLdvY"></path><path d="M0 457.14L37.5 457.14L37.5 571.43L0 571.43L0 457.14Z" id="fwmqwDVgQ"></path><path d="M0 685.71L37.5 685.71L37.5 800L0 800L0 685.71Z" id="ajhvkGUZZ"></path><path d="M762.5 0L800 0L800 114.29L762.5 114.29L762.5 0Z" id="ctCyKsa12"></path><path d="M762.5 228.57L800 228.57L800 342.86L762.5 342.86L762.5 228.57Z" id="b2G8EdxQNZ"></path><path d="M762.5 457.14L800 457.14L800 571.43L762.5 571.43L762.5 457.14Z" id="djM4os0hg"></path><path d="M762.5 685.71L800 685.71L800 800L762.5 800L762.5 685.71Z" id="jDv3NYypf"></path></defs><g><g><g><g><filter id="shadow8577882" x="153.5" y="153.5" width="506.5" height="506.5" filterUnits="userSpaceOnUse" primitiveUnits="userSpaceOnUse"><feFlood></feFlood><feComposite in2="SourceAlpha" operator="in"></feComposite><feGaussianBlur stdDeviation="1"></feGaussianBlur><feOffset dx="1" dy="1" result="afterOffset"></feOffset><feFlood flood-color="#000000" flood-opacity="0.5"></feFlood><feComposite in2="afterOffset" operator="in"></feComposite><feMorphology operator="dilate" radius="1"></feMorphology><feComposite in2="SourceAlpha" operator="out"></feComposite></filter><path d="M162.5 650L162.5 162.5L650 162.5L650 650L162.5 650ZM223.44 589.06L314.84 497.66L375.78 528.13L467.19 406.25L589.06 568.75L589.06 223.44L223.44 223.44L223.44 589.06ZM334.45 292.17L336.6 292.39L338.73 292.69L340.82 293.08L342.89 293.54L344.93 294.09L346.93 294.71L348.9 295.41L350.83 296.18L352.73 297.03L354.58 297.94L356.4 298.93L358.16 299.98L359.89 301.1L361.57 302.28L363.2 303.52L364.78 304.83L366.31 306.19L367.78 307.61L369.2 309.08L370.56 310.61L371.87 312.19L373.11 313.82L374.29 315.5L375.41 317.23L376.46 319L377.45 320.81L378.36 322.66L379.21 324.56L379.98 326.49L380.68 328.46L381.3 330.46L381.85 332.5L382.32 334.57L382.7 336.66L383 338.79L383.22 340.94L383.35 343.11L383.4 345.31L383.35 347.51L383.22 349.69L383 351.84L382.7 353.96L382.32 356.06L381.85 358.13L381.3 360.16L380.68 362.17L379.98 364.13L379.21 366.07L378.36 367.96L377.45 369.82L376.46 371.63L375.41 373.4L374.29 375.12L373.11 376.8L371.87 378.43L370.56 380.01L369.2 381.54L367.78 383.02L366.31 384.44L364.78 385.8L363.2 387.1L361.57 388.35L359.89 389.53L358.16 390.64L356.4 391.7L354.58 392.68L352.73 393.6L350.83 394.44L348.9 395.22L346.93 395.91L344.93 396.54L342.89 397.08L340.82 397.55L338.73 397.93L336.6 398.24L334.45 398.46L332.28 398.59L330.08 398.63L327.88 398.59L325.71 398.46L323.55 398.24L321.43 397.93L319.33 397.55L317.26 397.08L315.23 396.54L313.22 395.91L311.26 395.22L309.32 394.44L307.43 393.6L305.57 392.68L303.76 391.7L301.99 390.64L300.27 389.53L298.59 388.35L296.96 387.1L295.38 385.8L293.85 384.44L292.37 383.02L290.96 381.54L289.59 380.01L288.29 378.43L287.05 376.8L285.86 375.12L284.75 373.4L283.69 371.63L282.71 369.82L281.79 367.96L280.95 366.07L280.18 364.13L279.48 362.17L278.85 360.16L278.31 358.13L277.84 356.06L277.46 353.96L277.15 351.84L276.93 349.69L276.8 347.51L276.76 345.31L276.8 343.11L276.93 340.94L277.15 338.79L277.46 336.66L277.84 334.57L278.31 332.5L278.85 330.46L279.48 328.46L280.18 326.49L280.95 324.56L281.79 322.66L282.71 320.81L283.69 319L284.75 317.23L285.86 315.5L287.05 313.82L288.29 312.19L289.59 310.61L290.96 309.08L292.37 307.61L293.85 306.19L295.38 304.83L296.96 303.52L298.59 302.28L300.27 301.1L301.99 299.98L303.76 298.93L305.57 297.94L307.43 297.03L309.32 296.18L311.26 295.41L313.22 294.71L315.23 294.09L317.26 293.54L319.33 293.08L321.43 292.69L323.55 292.39L325.71 292.17L327.88 292.04L330.08 291.99L332.28 292.04L334.45 292.17Z" id="awnF9gehf" fill="white" fill-opacity="1" filter="url(#shadow8577882)"></path></g><use xlink:href="#b18Rv5M10w" opacity="1" fill="#e6e5e5" fill-opacity="1"></use><g><use xlink:href="#b18Rv5M10w" opacity="1" fill-opacity="0" stroke="#c19d4a" stroke-width="0" stroke-opacity="1"></use></g></g><g><use xlink:href="#altgQOF6j" opacity="1" fill="#e6e5e5" fill-opacity="0.99"></use></g><g><use xlink:href="#c5WiqStjlb" opacity="1" fill="#e6e5e5" fill-opacity="0.99"></use></g><g><use xlink:href="#brs8zOMdg" opacity="1" fill="#e6e5e5" fill-opacity="0.99"></use></g><g><use xlink:href="#bXCViWGGz" opacity="1" fill="#e6e5e5" fill-opacity="0.99"></use></g><g><use xlink:href="#avIIoFfUJ" opacity="1" fill="#e6e5e5" fill-opacity="0.99"></use></g><g><use xlink:href="#c3wxJHzje" opacity="1" fill="#e6e5e5" fill-opacity="0.99"></use></g><g><use xlink:href="#g1HF5UEmHW" opacity="1" fill="#e6e5e5" fill-opacity="0.99"></use></g><g><use xlink:href="#a3N4GwxwlD" opacity="1" fill="#e6e5e5" fill-opacity="0.99"></use></g><g><use xlink:href="#c15KMAhW3w" opacity="1" fill="#e6e5e5" fill-opacity="0.99"></use></g><g><use xlink:href="#c8wqBLdvY" opacity="1" fill="#e6e5e5" fill-opacity="0.99"></use></g><g><use xlink:href="#fwmqwDVgQ" opacity="1" fill="#e6e5e5" fill-opacity="0.99"></use></g><g><use xlink:href="#ajhvkGUZZ" opacity="1" fill="#e6e5e5" fill-opacity="0.99"></use></g><g><use xlink:href="#ctCyKsa12" opacity="1" fill="#e6e5e5" fill-opacity="0.99"></use></g><g><use xlink:href="#b2G8EdxQNZ" opacity="1" fill="#e6e5e5" fill-opacity="0.99"></use></g><g><use xlink:href="#djM4os0hg" opacity="1" fill="#e6e5e5" fill-opacity="0.99"></use></g><g><use xlink:href="#jDv3NYypf" opacity="1" fill="#e6e5e5" fill-opacity="0.99"></use></g></g></g></svg>